<svg xmlns="http://www.w3.org/2000/svg" width="36" height="14" fill="none" viewBox="0 0 36 14"><path stroke="#007CC0" stroke-linecap="round" stroke-linejoin="round" stroke-width=".784" d="M3.894 11.56c-2.185.044-3.55-.859-3.55-.859l.318-.36-.097-1.807.233-.181.228-1.13.865-.677c3.096-1.4 5.782-1.535 5.782-1.535 4.506-3.072 8.058-3.342 8.058-3.342 8.24-.904 16.662.36 16.662.36-.456.136.136 1.08.136 1.08l1.821 2.083c.32.405-.182 2.317-.182 2.317l.057 1.76.337.347-.085.783-2.906.957-27.677.262"></path><path fill="#007CC0" fill-rule="evenodd" d="m8.044 4.927.768.915 13.423-.945 2.641.365 8.815-.365-.46-.731-1.137.03s-.49-.03-1.382-.64L28.04 1.79l3.962.122 1.75 2.803.707 1.128-.235 1.067L6.477 8.34l-1.69 3.138-1.38.091-2.397-.457-.43-1.462.338-1.828.645-.945 1.505-.853 4.976-1.098Z" clip-rule="evenodd"></path><path fill="#007CC0" fill-rule="evenodd" d="M8.905 10.626a2.234 2.234 0 0 1-2.243 2.225 2.234 2.234 0 0 1-2.244-2.225A2.235 2.235 0 0 1 6.662 8.4c1.239 0 2.243.997 2.243 2.226M29.437 10.631a2.234 2.234 0 0 1-2.242 2.225 2.234 2.234 0 0 1-2.244-2.225 2.235 2.235 0 0 1 2.244-2.225c1.238 0 2.242.996 2.242 2.225" clip-rule="evenodd"></path><path stroke="#007CC0" stroke-linecap="round" stroke-width=".784" d="M8.905 10.626a2.234 2.234 0 0 1-2.243 2.225 2.234 2.234 0 0 1-2.244-2.225A2.235 2.235 0 0 1 6.662 8.4c1.239 0 2.243.997 2.243 2.226ZM29.437 10.631a2.234 2.234 0 0 1-2.242 2.225 2.234 2.234 0 0 1-2.244-2.225 2.235 2.235 0 0 1 2.244-2.225c1.238 0 2.242.996 2.242 2.225Z" clip-rule="evenodd"></path><path fill="#007CC0" fill-rule="evenodd" d="m7.812 5.719.475-1.345 4.43-1.925 4.467-1.053h9.007l4.393.436 2.892 2.397.623.945.068 2.904.31 2.32-2.816.784-15.098.523-9.925-.348L7.812 5.72Z" clip-rule="evenodd"></path><path fill="#007CC0" fill-rule="evenodd" d="m5.569 9.3 2.333-.433.867-.679-2.835.304-.365.808Z" clip-rule="evenodd"></path><path stroke="#00324E" stroke-linecap="round" stroke-width=".784" d="M15.41 7.006s7.349-.317 11.844-.363"></path><path fill="#fff" fill-rule="evenodd" d="M15.144 7.002c.077-.087.133-.055.133-.055l.936-.047c.37-.492-.17-.69-.17-.69s-.417-.13-1.261.61l-.284.232" clip-rule="evenodd"></path><path stroke="#007CC0" stroke-linecap="round" stroke-linejoin="round" stroke-width=".571" d="M15.144 7.002c.077-.087.133-.055.133-.055l.936-.047c.37-.492-.17-.69-.17-.69s-.417-.13-1.261.61l-.284.232"></path><path fill="#fff" fill-rule="evenodd" d="M34.314 8.473s.175-.729 0-1.341c0 0-.18-.303-.175-.612 0 0-1.633.029-3.674-.788 0 0-3.906-1.748-8.483-1.72 0 0-3.206-.116-5.16.875 0 0-2.04.991-3.381 1.895 0 0-4.373.088-7.23 1.02 0 0-.437.263-.787.642l.088.874-.205.205.117 1.544-.087.205s1.703.556 3.455.677l.159-.002a2.087 2.087 0 0 0 1.829 1.09c.806 0 1.498-.46 1.849-1.128l7.286-.076 2.476-.008h3.874l.054-.012a2.093 2.093 0 0 0 1.902 1.225c.88 0 1.63-.543 1.94-1.311l.365-.004s1.193-.19 2.884-.51l.846-.7.221-.082.245-.092s.058-.73.03-1.08c-.03-.35-.438-.786-.438-.786Z" clip-rule="evenodd"></path><path stroke="#007CC0" stroke-linecap="round" stroke-width=".784" d="M34.751 9.26c-.029-.35-.437-.787-.437-.787s.175-.729 0-1.341c0 0-.18-.303-.175-.612 0 0-1.633.029-3.674-.788 0 0-3.906-1.748-8.483-1.72 0 0-3.206-.116-5.16.875 0 0-2.04.991-3.381 1.895 0 0-4.373.088-7.23 1.02 0 0-.437.263-.787.642l.088.874-.205.205.117 1.544-.087.205s1.703.556 3.455.677l.159-.002a2.087 2.087 0 0 0 1.829 1.09c.806 0 1.498-.46 1.849-1.128l7.286-.076 2.476-.008h3.874l.054-.012a2.093 2.093 0 0 0 1.902 1.225c.88 0 1.63-.543 1.94-1.311l.365-.004s1.193-.19 2.884-.51l.846-.7.221-.082.245-.092s.058-.73.03-1.08Z" clip-rule="evenodd"></path><path stroke="#007CC0" stroke-linejoin="round" stroke-width=".571" d="M34.616 10.408s.021.391-.053.476c0 0-.22.138-1.046.233"></path></svg>